<svg id="visual" viewBox="0 0 960 100" width="960" height="100" xmlns="http://www.w3.org/2000/svg" xmlns:xlink="http://www.w3.org/1999/xlink" version="1.1"><path d="M0 17L12.3 19.5C24.7 22 49.3 27 74 33.7C98.7 40.3 123.3 48.7 148 46.5C172.7 44.3 197.3 31.7 221.8 30.3C246.3 29 270.7 39 295.2 42.7C319.7 46.3 344.3 43.7 369 38C393.7 32.3 418.3 23.7 443 24.2C467.7 24.7 492.3 34.3 517 34.5C541.7 34.7 566.3 25.3 591 27C615.7 28.7 640.3 41.3 664.8 41.5C689.3 41.7 713.7 29.3 738.2 22.8C762.7 16.3 787.3 15.7 812 22.3C836.7 29 861.3 43 886 47.8C910.7 52.7 935.3 48.3 947.7 46.2L960 44L960 101L947.7 101C935.3 101 910.7 101 886 101C861.3 101 836.7 101 812 101C787.3 101 762.7 101 738.2 101C713.7 101 689.3 101 664.8 101C640.3 101 615.7 101 591 101C566.3 101 541.7 101 517 101C492.3 101 467.7 101 443 101C418.3 101 393.7 101 369 101C344.3 101 319.7 101 295.2 101C270.7 101 246.3 101 221.8 101C197.3 101 172.7 101 148 101C123.3 101 98.7 101 74 101C49.3 101 24.7 101 12.3 101L0 101Z" fill="#22a884"></path><path d="M0 59L12.3 55C24.7 51 49.3 43 74 43.2C98.7 43.3 123.3 51.7 148 50.5C172.7 49.3 197.3 38.7 221.8 39.3C246.3 40 270.7 52 295.2 56.8C319.7 61.7 344.3 59.3 369 58C393.7 56.7 418.3 56.3 443 55.8C467.7 55.3 492.3 54.7 517 55.5C541.7 56.3 566.3 58.7 591 55C615.7 51.3 640.3 41.7 664.8 38C689.3 34.3 713.7 36.7 738.2 38.3C762.7 40 787.3 41 812 39.7C836.7 38.3 861.3 34.7 886 36.8C910.7 39 935.3 47 947.7 51L960 55L960 101L947.7 101C935.3 101 910.7 101 886 101C861.3 101 836.7 101 812 101C787.3 101 762.7 101 738.2 101C713.7 101 689.3 101 664.8 101C640.3 101 615.7 101 591 101C566.3 101 541.7 101 517 101C492.3 101 467.7 101 443 101C418.3 101 393.7 101 369 101C344.3 101 319.7 101 295.2 101C270.7 101 246.3 101 221.8 101C197.3 101 172.7 101 148 101C123.3 101 98.7 101 74 101C49.3 101 24.7 101 12.3 101L0 101Z" fill="#0095a2"></path><path d="M0 47L12.3 48.3C24.7 49.7 49.3 52.3 74 54C98.7 55.7 123.3 56.3 148 58.8C172.7 61.3 197.3 65.7 221.8 65.5C246.3 65.3 270.7 60.7 295.2 56.8C319.7 53 344.3 50 369 51.5C393.7 53 418.3 59 443 61.7C467.7 64.3 492.3 63.7 517 60.7C541.7 57.7 566.3 52.3 591 52.7C615.7 53 640.3 59 664.8 59.3C689.3 59.7 713.7 54.3 738.2 53.3C762.7 52.3 787.3 55.7 812 58C836.7 60.3 861.3 61.7 886 59.3C910.7 57 935.3 51 947.7 48L960 45L960 101L947.7 101C935.3 101 910.7 101 886 101C861.3 101 836.7 101 812 101C787.3 101 762.7 101 738.2 101C713.7 101 689.3 101 664.8 101C640.3 101 615.7 101 591 101C566.3 101 541.7 101 517 101C492.3 101 467.7 101 443 101C418.3 101 393.7 101 369 101C344.3 101 319.7 101 295.2 101C270.7 101 246.3 101 221.8 101C197.3 101 172.7 101 148 101C123.3 101 98.7 101 74 101C49.3 101 24.7 101 12.3 101L0 101Z" fill="#007da7"></path><path d="M0 71L12.3 71.7C24.7 72.3 49.3 73.7 74 71.8C98.7 70 123.3 65 148 66.2C172.7 67.3 197.3 74.7 221.8 77.8C246.3 81 270.7 80 295.2 79.7C319.7 79.3 344.3 79.7 369 77C393.7 74.3 418.3 68.7 443 68.7C467.7 68.7 492.3 74.3 517 77.3C541.7 80.3 566.3 80.7 591 78.3C615.7 76 640.3 71 664.8 69.5C689.3 68 713.7 70 738.2 70.2C762.7 70.3 787.3 68.7 812 67.3C836.7 66 861.3 65 886 63.8C910.7 62.7 935.3 61.3 947.7 60.7L960 60L960 101L947.7 101C935.3 101 910.7 101 886 101C861.3 101 836.7 101 812 101C787.3 101 762.7 101 738.2 101C713.7 101 689.3 101 664.8 101C640.3 101 615.7 101 591 101C566.3 101 541.7 101 517 101C492.3 101 467.7 101 443 101C418.3 101 393.7 101 369 101C344.3 101 319.7 101 295.2 101C270.7 101 246.3 101 221.8 101C197.3 101 172.7 101 148 101C123.3 101 98.7 101 74 101C49.3 101 24.7 101 12.3 101L0 101Z" fill="#1e629d"></path><path d="M0 77L12.3 76.3C24.7 75.7 49.3 74.3 74 74.5C98.7 74.7 123.3 76.3 148 76.5C172.7 76.7 197.3 75.3 221.8 76.3C246.3 77.3 270.7 80.7 295.2 83.5C319.7 86.3 344.3 88.7 369 88.3C393.7 88 418.3 85 443 84C467.7 83 492.3 84 517 85.7C541.7 87.3 566.3 89.7 591 90C615.7 90.3 640.3 88.7 664.8 87C689.3 85.3 713.7 83.7 738.2 83.8C762.7 84 787.3 86 812 87.3C836.7 88.7 861.3 89.3 886 87C910.7 84.7 935.3 79.3 947.7 76.7L960 74L960 101L947.7 101C935.3 101 910.7 101 886 101C861.3 101 836.7 101 812 101C787.3 101 762.7 101 738.2 101C713.7 101 689.3 101 664.8 101C640.3 101 615.7 101 591 101C566.3 101 541.7 101 517 101C492.3 101 467.7 101 443 101C418.3 101 393.7 101 369 101C344.3 101 319.7 101 295.2 101C270.7 101 246.3 101 221.8 101C197.3 101 172.7 101 148 101C123.3 101 98.7 101 74 101C49.3 101 24.7 101 12.3 101L0 101Z" fill="#414487"></path></svg>